<svg width="22" height="24" viewBox="0 0 22 24" fill="none" xmlns="http://www.w3.org/2000/svg">
<path fill-rule="evenodd" clip-rule="evenodd" d="M6.29167 4.50164C6.29167 4.33941 6.29167 4.25829 6.23755 4.21331C6.18343 4.16833 6.10575 4.18277 5.95039 4.21165C5.07504 4.3744 4.43085 4.6623 3.92157 5.17157C2.75 6.34315 2.75 8.22876 2.75 12C2.75 15.7712 2.75 17.6569 3.92157 18.8284C5.09315 20 6.97876 20 10.75 20H11.25C15.0212 20 16.9069 20 18.0784 18.8284C19.25 17.6569 19.25 15.7712 19.25 12C19.25 8.22876 19.25 6.34315 18.0784 5.17157C17.5692 4.6623 16.925 4.37441 16.0496 4.21165C15.8943 4.18277 15.8166 4.16833 15.7625 4.21331C15.7083 4.25829 15.7083 4.33941 15.7083 4.50164L15.7083 6.5C15.7083 7.32843 15.0368 8 14.2083 8C13.3799 8 12.7083 7.32843 12.7083 6.5L12.7083 4.30105C12.7083 4.16044 12.7083 4.09014 12.6646 4.04624C12.6209 4.00234 12.5507 4.00206 12.4104 4.00149C12.0447 4 11.6584 4 11.25 4H10.75C10.3416 4 9.95529 4 9.58961 4.00149C9.44927 4.00206 9.3791 4.00234 9.33539 4.04624C9.29167 4.09014 9.29167 4.16044 9.29167 4.30105L9.29167 6.5C9.29167 7.32843 8.6201 8 7.79167 8C6.96324 8 6.29167 7.32843 6.29167 6.5L6.29167 4.50164Z" fill="white"/>
<path d="M7.79174 2.5L7.79175 6.5" stroke="#DEC3C3" stroke-linecap="round"/>
<path d="M14.2082 2.5L14.2083 6.5" stroke="#DEC3C3" stroke-linecap="round"/>
<circle cx="7.5" cy="10.5" r="0.5" fill="#DEC3C3"/>
<circle cx="10.5" cy="10.5" r="0.5" fill="#DEC3C3"/>
<circle cx="13.5" cy="10.5" r="0.5" fill="#DEC3C3"/>
<circle cx="16.5" cy="10.5" r="0.5" fill="#DEC3C3"/>
<circle cx="7.5" cy="13.5" r="0.5" fill="#DEC3C3"/>
<circle cx="10.5" cy="13.5" r="0.5" fill="#DEC3C3"/>
<circle cx="13.5" cy="13.5" r="0.5" fill="#DEC3C3"/>
<circle cx="16.5" cy="13.5" r="0.5" fill="#DEC3C3"/>
<circle cx="7.5" cy="16.5" r="0.5" fill="#DEC3C3"/>
<circle cx="10.5" cy="16.5" r="0.5" fill="#DEC3C3"/>
<circle cx="13.5" cy="16.5" r="0.5" fill="#DEC3C3"/>
<circle cx="16.5" cy="16.5" r="0.5" fill="#DEC3C3"/>
</svg>
