<svg width="19" height="19" viewBox="0 0 19 19" fill="none" xmlns="http://www.w3.org/2000/svg">
<path fill-rule="evenodd" clip-rule="evenodd" d="M2.16904 4.54477C1.58325 5.13056 1.58325 6.07337 1.58325 7.95898V11.0423C1.58325 12.9279 1.58325 13.8707 2.16904 14.4565C2.75482 15.0423 3.69763 15.0423 5.58325 15.0423H13.4166C15.3022 15.0423 16.245 15.0423 16.8308 14.4565C17.4166 13.8707 17.4166 12.9279 17.4166 11.0423V7.95898C17.4166 6.07337 17.4166 5.13056 16.8308 4.54477C16.245 3.95898 15.3022 3.95898 13.4166 3.95898H5.58325C3.69763 3.95898 2.75482 3.95898 2.16904 4.54477ZM3.95825 5.33398C3.40597 5.33398 2.95825 5.7817 2.95825 6.33398C2.95825 6.88627 3.40597 7.33398 3.95825 7.33398H5.54158C6.09387 7.33398 6.54158 6.88627 6.54158 6.33398C6.54158 5.7817 6.09387 5.33398 5.54158 5.33398H3.95825ZM12.4583 12.6673C12.4583 12.115 12.906 11.6673 13.4583 11.6673H15.0416C15.5939 11.6673 16.0416 12.115 16.0416 12.6673C16.0416 13.2196 15.5939 13.6673 15.0416 13.6673H13.4583C12.906 13.6673 12.4583 13.2196 12.4583 12.6673ZM9.87492 9.50065C9.87492 9.70776 9.70703 9.87565 9.49992 9.87565C9.29281 9.87565 9.12492 9.70776 9.12492 9.50065C9.12492 9.29354 9.29281 9.12565 9.49992 9.12565C9.70703 9.12565 9.87492 9.29354 9.87492 9.50065ZM11.8749 9.50065C11.8749 10.8123 10.8116 11.8757 9.49992 11.8757C8.18824 11.8757 7.12492 10.8123 7.12492 9.50065C7.12492 8.18897 8.18824 7.12565 9.49992 7.12565C10.8116 7.12565 11.8749 8.18897 11.8749 9.50065Z" fill="white"/>
</svg>
