<svg width="24" height="24" viewBox="0 0 24 24" fill="none" xmlns="http://www.w3.org/2000/svg">
<path d="M17.7071 13.7071L20.3552 16.3552C20.7113 16.7113 20.7113 17.2887 20.3552 17.6448C18.43 19.57 15.3821 19.7866 13.204 18.153L11.6286 16.9714C9.88504 15.6638 8.33622 14.115 7.02857 12.3714L5.84701 10.796C4.21341 8.61788 4.43001 5.56999 6.35523 3.64477C6.71133 3.28867 7.28867 3.28867 7.64477 3.64477L10.2929 6.29289C10.6834 6.68342 10.6834 7.31658 10.2929 7.70711L9.27175 8.72825C9.10946 8.89054 9.06923 9.13846 9.17187 9.34373C10.3585 11.7171 12.2829 13.6415 14.6563 14.8281C14.8615 14.9308 15.1095 14.8905 15.2717 14.7283L16.2929 13.7071C16.6834 13.3166 17.3166 13.3166 17.7071 13.7071Z" fill="white"/>
<path fill-rule="evenodd" clip-rule="evenodd" d="M20.3553 17.644C20.7114 17.2879 20.7114 16.7106 20.3553 16.3545L17.7071 13.7064C17.7071 13.7063 17.707 13.7062 17.7069 13.7062C17.3164 13.3158 16.6834 13.3159 16.2929 13.7064L15.5 14.4993L19.4048 18.4041C19.743 18.1907 20.0621 17.9371 20.3553 17.644ZM5.59521 4.59444L9.50003 8.49926L10.2929 7.70636C10.6834 7.31584 10.6834 6.68267 10.2929 6.29215L7.6448 3.64402C7.2887 3.28793 6.71136 3.28793 6.35526 3.64403C6.06214 3.93715 5.80862 4.2563 5.59521 4.59444Z" fill="white"/>
</svg>
