<svg width="23" height="23" viewBox="0 0 23 23" fill="none" xmlns="http://www.w3.org/2000/svg">
<path d="M18.9777 13.4986C18.4856 12.9862 17.8921 12.7123 17.2631 12.7123C16.6392 12.7123 16.0406 12.9811 15.5282 13.4935L13.9252 15.0914C13.7934 15.0204 13.6615 14.9544 13.5346 14.8885C13.352 14.7972 13.1796 14.7109 13.0324 14.6196C11.5309 13.666 10.1663 12.4231 8.85758 10.8151C8.22349 10.0136 7.79738 9.33891 7.48794 8.65409C7.90391 8.27363 8.28944 7.87796 8.66482 7.49751C8.80686 7.35547 8.94889 7.20836 9.09093 7.06632C10.1562 6.00105 10.1562 4.62126 9.09093 3.55599L7.70607 2.17113C7.54882 2.01388 7.38649 1.85155 7.23431 1.68922C6.92994 1.37471 6.61036 1.05006 6.28063 0.745692C5.78858 0.25871 5.20014 0 4.58126 0C3.96239 0 3.36381 0.25871 2.85653 0.745692C2.85146 0.750765 2.85146 0.750765 2.84639 0.755838L1.12166 2.49579C0.472347 3.1451 0.102037 3.93644 0.0208736 4.85461C-0.100872 6.33585 0.335383 7.71563 0.670184 8.61858C1.49197 10.8354 2.71957 12.8898 4.55083 15.0914C6.77269 17.7444 9.44602 19.8395 12.4998 21.3156C13.6665 21.8686 15.2239 22.523 16.9638 22.6346C17.0703 22.6396 17.1819 22.6447 17.2834 22.6447C18.4552 22.6447 19.4393 22.2237 20.2104 21.3867C20.2154 21.3765 20.2256 21.3714 20.2307 21.3613C20.4944 21.0417 20.7988 20.7526 21.1184 20.4431C21.3365 20.2352 21.5597 20.017 21.7778 19.7888C22.28 19.2663 22.5438 18.6575 22.5438 18.0336C22.5438 17.4046 22.275 16.8009 21.7626 16.2936L18.9777 13.4986ZM20.7937 18.8401C20.7887 18.8401 20.7887 18.8452 20.7937 18.8401C20.5959 19.0532 20.393 19.246 20.1749 19.459C19.8451 19.7735 19.5103 20.1033 19.1958 20.4736C18.6835 21.0214 18.0798 21.2801 17.2885 21.2801C17.2124 21.2801 17.1312 21.2801 17.0551 21.2751C15.5485 21.1787 14.1484 20.5902 13.0984 20.088C10.2272 18.6981 7.70607 16.7248 5.61103 14.224C3.88123 12.1391 2.72464 10.2114 1.95866 8.14174C1.48689 6.87863 1.31442 5.89452 1.39051 4.96621C1.44124 4.3727 1.66951 3.88064 2.09055 3.45961L3.82035 1.7298C4.06892 1.49646 4.3327 1.36964 4.59141 1.36964C4.91099 1.36964 5.1697 1.5624 5.33203 1.72473C5.3371 1.7298 5.34218 1.73488 5.34725 1.73995C5.65668 2.0291 5.9509 2.32839 6.26034 2.64797C6.4176 2.8103 6.57992 2.97262 6.74225 3.14002L8.12711 4.52488C8.66482 5.06259 8.66482 5.55972 8.12711 6.09743C7.98 6.24454 7.83796 6.39165 7.69085 6.53369C7.26474 6.96994 6.85892 7.37576 6.4176 7.77143C6.40745 7.78158 6.39731 7.78665 6.39223 7.7968C5.95598 8.23305 6.03714 8.65916 6.12845 8.94831C6.13352 8.96353 6.1386 8.97875 6.14367 8.99396C6.50383 9.86647 7.01111 10.6883 7.78216 11.6673L7.78723 11.6724C9.18731 13.3971 10.6635 14.7414 12.2918 15.7711C12.4998 15.903 12.7129 16.0096 12.9158 16.111C13.0984 16.2023 13.2709 16.2886 13.418 16.3799C13.4383 16.39 13.4586 16.4052 13.4788 16.4154C13.6513 16.5016 13.8136 16.5422 13.981 16.5422C14.4021 16.5422 14.6659 16.2784 14.7521 16.1922L16.487 14.4573C16.6595 14.2848 16.9334 14.0768 17.253 14.0768C17.5675 14.0768 17.8262 14.2747 17.9834 14.4472C17.9885 14.4522 17.9885 14.4522 17.9936 14.4573L20.7887 17.2524C21.3112 17.7698 21.3112 18.3024 20.7937 18.8401Z" fill="white"/>
</svg>
