<svg width="24" height="20" viewBox="0 0 24 20" fill="none" xmlns="http://www.w3.org/2000/svg">
<path d="M21.0488 0H2.9512C2.16875 0.000847034 1.4186 0.312048 0.865322 0.865322C0.312048 1.4186 0.000847034 2.16875 0 2.9512V16.2488C0.000847034 17.0312 0.312048 17.7814 0.865322 18.3347C1.4186 18.888 2.16875 19.1992 2.9512 19.2H21.0488C21.8312 19.1992 22.5814 18.888 23.1347 18.3347C23.688 17.7814 23.9992 17.0312 24 16.2488V2.9512C23.9992 2.16875 23.688 1.4186 23.1347 0.865322C22.5814 0.312048 21.8312 0.000847034 21.0488 0ZM2.9512 1.6H21.0488C21.407 1.60042 21.7505 1.74292 22.0038 1.99622C22.2571 2.24953 22.3996 2.59297 22.4 2.9512V3.5632L12 10.2488L1.6 3.5632V2.9512C1.60042 2.59297 1.74292 2.24953 1.99622 1.99622C2.24953 1.74292 2.59297 1.60042 2.9512 1.6ZM21.0488 17.6H2.9512C2.59297 17.5996 2.24953 17.4571 1.99622 17.2038C1.74292 16.9505 1.60042 16.607 1.6 16.2488V5.4656L11.5672 11.8728C11.6963 11.9558 11.8465 12 12 12C12.1535 12 12.3037 11.9558 12.4328 11.8728L22.4 5.4656V16.2488C22.3996 16.607 22.2571 16.9505 22.0038 17.2038C21.7505 17.4571 21.407 17.5996 21.0488 17.6Z" fill="white"/>
</svg>
