<svg width="41" height="42" viewBox="0 0 41 42" fill="none" xmlns="http://www.w3.org/2000/svg">
<rect width="41" height="42" rx="8" fill="white"/>
<path d="M12.9279 15.3614H14.9491C15.1077 15.9756 15.4538 16.5179 15.9341 16.9045C16.4144 17.291 17.0022 17.5005 17.6067 17.5005C18.2113 17.5005 18.7991 17.291 19.2794 16.9045C19.7597 16.5179 20.1058 15.9756 20.2644 15.3614H29.1802C29.3761 15.3614 29.564 15.2794 29.7026 15.1336C29.8411 14.9877 29.9189 14.7899 29.9189 14.5836C29.9189 14.3773 29.8411 14.1795 29.7026 14.0336C29.564 13.8878 29.3761 13.8058 29.1802 13.8058H20.2644C20.1058 13.1916 19.7597 12.6494 19.2794 12.2628C18.7991 11.8762 18.2113 11.6667 17.6067 11.6667C17.0022 11.6667 16.4144 11.8762 15.9341 12.2628C15.4538 12.6494 15.1077 13.1916 14.9491 13.8058H12.9279C12.732 13.8058 12.5441 13.8878 12.4056 14.0336C12.267 14.1795 12.1892 14.3773 12.1892 14.5836C12.1892 14.7899 12.267 14.9877 12.4056 15.1336C12.5441 15.2794 12.732 15.3614 12.9279 15.3614ZM17.6064 13.2225C17.8621 13.2225 18.112 13.3023 18.3246 13.4519C18.5372 13.6015 18.7029 13.814 18.8008 14.0627C18.8986 14.3115 18.9242 14.5851 18.8743 14.8492C18.8244 15.1132 18.7013 15.3557 18.5205 15.5461C18.3397 15.7364 18.1094 15.8661 17.8586 15.9186C17.6078 15.9711 17.3479 15.9441 17.1116 15.8411C16.8754 15.7381 16.6735 15.5636 16.5315 15.3398C16.3894 15.116 16.3136 14.8528 16.3136 14.5836C16.314 14.2228 16.4503 13.8768 16.6927 13.6216C16.935 13.3665 17.2636 13.2229 17.6064 13.2225Z" fill="#492E51"/>
<path d="M29.1802 20.2226H27.159C27.0007 19.6082 26.6547 19.0658 26.1745 18.6791C25.6942 18.2923 25.1064 18.0828 24.5018 18.0828C23.8971 18.0828 23.3093 18.2923 22.8291 18.6791C22.3488 19.0658 22.0028 19.6082 21.8445 20.2226H12.9279C12.732 20.2226 12.5441 20.3046 12.4056 20.4504C12.267 20.5963 12.1892 20.7941 12.1892 21.0004C12.1892 21.2067 12.267 21.4045 12.4056 21.5504C12.5441 21.6962 12.732 21.7782 12.9279 21.7782H21.8445C22.0028 22.3925 22.3488 22.935 22.8291 23.3217C23.3093 23.7085 23.8971 23.918 24.5018 23.918C25.1064 23.918 25.6942 23.7085 26.1745 23.3217C26.6547 22.935 27.0007 22.3925 27.159 21.7782H29.1802C29.3761 21.7782 29.564 21.6962 29.7026 21.5504C29.8411 21.4045 29.9189 21.2067 29.9189 21.0004C29.9189 20.7941 29.8411 20.5963 29.7026 20.4504C29.564 20.3046 29.3761 20.2226 29.1802 20.2226ZM24.5018 22.3615C24.2461 22.3615 23.9961 22.2817 23.7835 22.1321C23.5709 21.9826 23.4052 21.77 23.3074 21.5213C23.2095 21.2726 23.1839 20.9989 23.2338 20.7349C23.2837 20.4708 23.4068 20.2283 23.5876 20.0379C23.7684 19.8476 23.9988 19.718 24.2496 19.6654C24.5003 19.6129 24.7603 19.6399 24.9965 19.7429C25.2327 19.8459 25.4346 20.0204 25.5767 20.2442C25.7187 20.468 25.7946 20.7312 25.7946 21.0004C25.7942 21.3613 25.6578 21.7072 25.4155 21.9624C25.1731 22.2176 24.8445 22.3611 24.5018 22.3615Z" fill="#492E51"/>
<path d="M29.1802 26.6393H20.2644C20.1058 26.0251 19.7597 25.4829 19.2794 25.0963C18.7991 24.7097 18.2113 24.5002 17.6067 24.5002C17.0022 24.5002 16.4144 24.7097 15.9341 25.0963C15.4538 25.4829 15.1077 26.0251 14.9491 26.6393H12.9279C12.732 26.6393 12.5441 26.7213 12.4056 26.8671C12.267 27.013 12.1892 27.2108 12.1892 27.4171C12.1892 27.6234 12.267 27.8212 12.4056 27.9671C12.5441 28.1129 12.732 28.1949 12.9279 28.1949H14.9491C15.1077 28.8091 15.4538 29.3514 15.9341 29.7379C16.4144 30.1245 17.0022 30.334 17.6067 30.334C18.2113 30.334 18.7991 30.1245 19.2794 29.7379C19.7597 29.3514 20.1058 28.8091 20.2644 28.1949H29.1802C29.3761 28.1949 29.564 28.1129 29.7026 27.9671C29.8411 27.8212 29.9189 27.6234 29.9189 27.4171C29.9189 27.2108 29.8411 27.013 29.7026 26.8671C29.564 26.7213 29.3761 26.6393 29.1802 26.6393ZM17.6064 28.7782C17.3507 28.7782 17.1007 28.6984 16.8881 28.5488C16.6755 28.3993 16.5098 28.1867 16.412 27.938C16.3141 27.6893 16.2885 27.4156 16.3384 27.1516C16.3883 26.8875 16.5114 26.645 16.6922 26.4547C16.873 26.2643 17.1034 26.1347 17.3542 26.0822C17.6049 26.0296 17.8649 26.0566 18.1011 26.1596C18.3373 26.2626 18.5392 26.4371 18.6813 26.6609C18.8234 26.8848 18.8992 27.1479 18.8992 27.4171C18.8986 27.7779 18.7622 28.1238 18.5199 28.3789C18.2776 28.634 17.9491 28.7776 17.6064 28.7782Z" fill="#492E51"/>
</svg>
