<svg width="28" height="33" viewBox="0 0 28 33" fill="none" xmlns="http://www.w3.org/2000/svg">
<path d="M22.3047 24.457L19.7573 15.2755C19.2133 13.3115 18.0281 11.5859 16.3901 10.3733C14.7522 9.16064 12.7557 8.53074 10.7184 8.5838C8.68114 8.63687 6.72015 9.36985 5.14756 10.6661C3.57496 11.9623 2.48112 13.7473 2.04014 15.737L0.0698214 24.6039C-0.0255173 25.0335 -0.0231918 25.479 0.0766262 25.9075C0.176444 26.3361 0.371208 26.7368 0.646547 27.08C0.921887 27.4232 1.27078 27.7003 1.66748 27.8907C2.06418 28.0811 2.49856 28.18 2.93859 28.1801H6.47261C6.69748 29.2875 7.29829 30.2831 8.17324 30.9983C9.04819 31.7134 10.1435 32.1041 11.2735 32.1041C12.4035 32.1041 13.4988 31.7134 14.3737 30.9983C15.2487 30.2831 15.8495 29.2875 16.0744 28.1801H19.4742C19.9269 28.1799 20.3735 28.0751 20.7791 27.8739C21.1847 27.6727 21.5383 27.3805 21.8124 27.0201C22.0865 26.6597 22.2736 26.2409 22.3591 25.7963C22.4447 25.3517 22.4254 24.8933 22.3047 24.457ZM11.2735 30.1396C10.6677 30.1371 10.0775 29.9475 9.58368 29.5967C9.0898 29.246 8.71637 28.7512 8.51445 28.1801H14.0325C13.8306 28.7512 13.4572 29.246 12.9633 29.5967C12.4694 29.9475 11.8792 30.1371 11.2735 30.1396ZM20.2531 25.8335C20.1617 25.9547 20.0432 26.0528 19.9071 26.12C19.771 26.1872 19.621 26.2216 19.4693 26.2205H2.93859C2.79188 26.2205 2.64705 26.1875 2.51478 26.1241C2.38252 26.0606 2.2662 25.9682 2.17442 25.8538C2.08263 25.7393 2.01772 25.6057 1.98447 25.4628C1.95123 25.3199 1.95049 25.1714 1.98233 25.0282L3.95265 16.1613C4.29983 14.5997 5.15904 13.199 6.3937 12.1819C7.62835 11.1647 9.16759 10.5895 10.7667 10.5476C12.3658 10.5057 13.9331 10.9996 15.2193 11.9507C16.5055 12.9018 17.4369 14.2556 17.8654 15.7968L20.4128 24.9782C20.4544 25.1234 20.4616 25.2763 20.4339 25.4247C20.4061 25.5732 20.3442 25.7131 20.2531 25.8335Z" fill="white"/>
<circle cx="17.3353" cy="9.80652" r="9.05652" fill="white" stroke="#0D8FAC" stroke-width="1.5"/>
<path d="M17.2935 12.9936C18.7608 12.9936 19.7866 12.0397 19.7866 10.6509V10.6415C19.7866 9.36028 18.8758 8.42973 17.6109 8.42973C16.944 8.42973 16.3966 8.69627 16.1068 9.14986H16.0838L16.2678 7.11574H19.3956V6.12907H15.3203L15.0029 10.0524H16.0378C16.116 9.90271 16.2264 9.77178 16.3506 9.66891C16.6036 9.45381 16.9302 9.3369 17.3073 9.3369C18.0847 9.3369 18.6412 9.88869 18.6412 10.6602V10.6696C18.6412 11.4599 18.0939 12.0117 17.3027 12.0117C16.6036 12.0117 16.0976 11.5768 16.001 11.011L15.9964 10.9782H14.8833L14.8879 11.039C14.9753 12.1566 15.9136 12.9936 17.2935 12.9936Z" fill="#0D8FAC"/>
</svg>
