<svg width="41" height="40" viewBox="0 0 41 40" fill="none" xmlns="http://www.w3.org/2000/svg">
<path fill-rule="evenodd" clip-rule="evenodd" d="M4.30493 11.3333C4.30493 7.56202 4.30493 5.6764 5.4765 4.50482C6.64808 3.33325 8.5337 3.33325 12.3049 3.33325H29.5545C33.3257 3.33325 35.2114 3.33325 36.3829 4.50482C37.5545 5.6764 37.5545 7.56202 37.5545 11.3333V28.6666C37.5545 32.4378 37.5545 34.3234 36.3829 35.495C35.2114 36.6666 33.3257 36.6666 29.5545 36.6666H12.3049C8.5337 36.6666 6.64808 36.6666 5.4765 35.495C4.30493 34.3234 4.30493 32.4378 4.30493 28.6666V11.3333ZM14.2477 27.9404C16.1644 26.466 18.5131 25.6666 20.9297 25.6666C23.3463 25.6666 25.6951 26.466 27.6118 27.9404C29.5284 29.4148 30.9058 31.4817 31.5308 33.8202C31.6734 34.3537 31.3565 34.9019 30.8229 35.0445C30.2894 35.1871 29.7412 34.8702 29.5986 34.3366C29.087 32.4224 27.9598 30.7315 26.3923 29.5257C24.8249 28.3199 22.9048 27.6666 20.9297 27.6666C18.9547 27.6666 17.0346 28.3199 15.4671 29.5257C13.8997 30.7315 12.7724 32.4224 12.2608 34.3366C12.1182 34.8702 11.5701 35.1871 11.0365 35.0445C10.503 34.9019 10.186 34.3537 10.3286 33.8202C10.9537 31.4817 12.331 29.4148 14.2477 27.9404ZM16.9423 14.9999C16.9423 12.7884 18.7299 10.9999 20.9297 10.9999C23.1296 10.9999 24.9172 12.7884 24.9172 14.9999C24.9172 17.2114 23.1296 18.9999 20.9297 18.9999C18.7299 18.9999 16.9423 17.2114 16.9423 14.9999ZM20.9297 8.99992C17.6206 8.99992 14.9423 11.6886 14.9423 14.9999C14.9423 18.3113 17.6206 20.9999 20.9297 20.9999C24.2389 20.9999 26.9172 18.3113 26.9172 14.9999C26.9172 11.6886 24.2389 8.99992 20.9297 8.99992Z" fill="#492E51"/>
<rect x="4.80493" y="3.83325" width="32.2496" height="32.3333" rx="3.5" stroke="#492E51"/>
</svg>
