<svg width="25" height="28" viewBox="0 0 25 28" fill="none" xmlns="http://www.w3.org/2000/svg">
<path fill-rule="evenodd" clip-rule="evenodd" d="M6.77706 13.9881L4.52982 13.239L4.52981 13.239L4.52981 13.239C2.1766 12.4546 1 12.0624 1 11.3416C1 10.6209 2.17661 10.2287 4.52982 9.44428L13.043 6.60656C14.6988 6.05463 15.5267 5.77866 15.9637 6.21568C16.4007 6.6527 16.1247 7.48059 15.5728 9.13638L12.7351 17.6496L12.7351 17.6496L12.7351 17.6496C11.9507 20.0028 11.5585 21.1794 10.8377 21.1794C10.117 21.1794 9.72476 20.0028 8.94036 17.6495L8.19128 15.4023L12.5448 11.0488C12.9354 10.6582 12.9354 10.0251 12.5448 9.63454C12.1543 9.24402 11.5211 9.24402 11.1306 9.63454L6.77706 13.9881Z" fill="white"/>
</svg>
